<mxfile host="app.diagrams.net" agent="Mozilla/5.0 (Windows NT 10.0; Win64; x64) AppleWebKit/537.36 (KHTML, like Gecko) Chrome/132.0.0.0 Safari/537.36 OPR/117.0.0.0" version="26.2.13">
  <diagram name="Страница 1" id="vaVnpeOQBWc_vJTZJ6nx">
    <mxGraphModel dx="3630" dy="1513" grid="1" gridSize="10" guides="1" tooltips="1" connect="1" arrows="1" fold="1" page="1" pageScale="1" pageWidth="827" pageHeight="1169" math="0" shadow="0">
      <root>
        <mxCell id="0" />
        <mxCell id="1" parent="0" />
        <mxCell id="XW4laHf70i-aS3ndhYvc-2" value="1" style="ellipse;whiteSpace=wrap;html=1;aspect=fixed;" parent="1" vertex="1">
          <mxGeometry x="160" y="170" width="30" height="30" as="geometry" />
        </mxCell>
        <mxCell id="iH4nYuXcYwgbLmIbxw34-3" style="edgeStyle=orthogonalEdgeStyle;rounded=0;orthogonalLoop=1;jettySize=auto;html=1;exitX=1;exitY=0.5;exitDx=0;exitDy=0;entryX=0;entryY=0.5;entryDx=0;entryDy=0;" parent="1" source="iH4nYuXcYwgbLmIbxw34-2" target="XW4laHf70i-aS3ndhYvc-2" edge="1">
          <mxGeometry relative="1" as="geometry" />
        </mxCell>
        <mxCell id="iH4nYuXcYwgbLmIbxw34-4" value="Z1/3" style="edgeLabel;html=1;align=center;verticalAlign=middle;resizable=0;points=[];" parent="iH4nYuXcYwgbLmIbxw34-3" vertex="1" connectable="0">
          <mxGeometry x="-0.0353" y="3" relative="1" as="geometry">
            <mxPoint y="3" as="offset" />
          </mxGeometry>
        </mxCell>
        <mxCell id="iH4nYuXcYwgbLmIbxw34-2" value="0" style="ellipse;whiteSpace=wrap;html=1;aspect=fixed;" parent="1" vertex="1">
          <mxGeometry x="50" y="170" width="30" height="30" as="geometry" />
        </mxCell>
        <mxCell id="iH4nYuXcYwgbLmIbxw34-5" value="2" style="ellipse;whiteSpace=wrap;html=1;aspect=fixed;" parent="1" vertex="1">
          <mxGeometry x="254" y="170" width="30" height="30" as="geometry" />
        </mxCell>
        <mxCell id="iH4nYuXcYwgbLmIbxw34-6" value="3" style="ellipse;whiteSpace=wrap;html=1;aspect=fixed;" parent="1" vertex="1">
          <mxGeometry x="354" y="170" width="30" height="30" as="geometry" />
        </mxCell>
        <mxCell id="iH4nYuXcYwgbLmIbxw34-7" style="edgeStyle=orthogonalEdgeStyle;rounded=0;orthogonalLoop=1;jettySize=auto;html=1;exitX=1;exitY=0.5;exitDx=0;exitDy=0;entryX=0;entryY=0.5;entryDx=0;entryDy=0;" parent="1" source="iH4nYuXcYwgbLmIbxw34-5" target="iH4nYuXcYwgbLmIbxw34-6" edge="1">
          <mxGeometry relative="1" as="geometry">
            <mxPoint x="244" y="230" as="sourcePoint" />
            <mxPoint x="314" y="140" as="targetPoint" />
            <Array as="points" />
          </mxGeometry>
        </mxCell>
        <mxCell id="iH4nYuXcYwgbLmIbxw34-13" value="Z2/3" style="edgeLabel;html=1;align=center;verticalAlign=middle;resizable=0;points=[];" parent="iH4nYuXcYwgbLmIbxw34-7" vertex="1" connectable="0">
          <mxGeometry x="-0.0224" y="2" relative="1" as="geometry">
            <mxPoint x="-4" y="2" as="offset" />
          </mxGeometry>
        </mxCell>
        <mxCell id="iH4nYuXcYwgbLmIbxw34-17" value="4" style="ellipse;whiteSpace=wrap;html=1;aspect=fixed;" parent="1" vertex="1">
          <mxGeometry x="450" y="137.5" width="30" height="30" as="geometry" />
        </mxCell>
        <mxCell id="iH4nYuXcYwgbLmIbxw34-18" value="6" style="ellipse;whiteSpace=wrap;html=1;aspect=fixed;" parent="1" vertex="1">
          <mxGeometry x="450" y="202.5" width="30" height="30" as="geometry" />
        </mxCell>
        <mxCell id="iH4nYuXcYwgbLmIbxw34-23" value="5" style="ellipse;whiteSpace=wrap;html=1;aspect=fixed;" parent="1" vertex="1">
          <mxGeometry x="550" y="137.5" width="30" height="30" as="geometry" />
        </mxCell>
        <mxCell id="iH4nYuXcYwgbLmIbxw34-24" style="edgeStyle=orthogonalEdgeStyle;rounded=0;orthogonalLoop=1;jettySize=auto;html=1;exitX=1;exitY=0.5;exitDx=0;exitDy=0;entryX=0;entryY=0.5;entryDx=0;entryDy=0;" parent="1" source="iH4nYuXcYwgbLmIbxw34-17" target="iH4nYuXcYwgbLmIbxw34-23" edge="1">
          <mxGeometry relative="1" as="geometry">
            <mxPoint x="480" y="162.5" as="sourcePoint" />
            <mxPoint x="390" y="172.5" as="targetPoint" />
          </mxGeometry>
        </mxCell>
        <mxCell id="iH4nYuXcYwgbLmIbxw34-25" value="Z3/4" style="edgeLabel;html=1;align=center;verticalAlign=middle;resizable=0;points=[];" parent="iH4nYuXcYwgbLmIbxw34-24" vertex="1" connectable="0">
          <mxGeometry x="-0.0224" y="2" relative="1" as="geometry">
            <mxPoint x="-5" y="2" as="offset" />
          </mxGeometry>
        </mxCell>
        <mxCell id="iH4nYuXcYwgbLmIbxw34-26" value="7" style="ellipse;whiteSpace=wrap;html=1;aspect=fixed;" parent="1" vertex="1">
          <mxGeometry x="550" y="202.5" width="30" height="30" as="geometry" />
        </mxCell>
        <mxCell id="iH4nYuXcYwgbLmIbxw34-27" style="edgeStyle=orthogonalEdgeStyle;rounded=0;orthogonalLoop=1;jettySize=auto;html=1;exitX=1;exitY=0.5;exitDx=0;exitDy=0;entryX=0;entryY=0.5;entryDx=0;entryDy=0;" parent="1" source="iH4nYuXcYwgbLmIbxw34-18" target="iH4nYuXcYwgbLmIbxw34-26" edge="1">
          <mxGeometry relative="1" as="geometry">
            <mxPoint x="480" y="217.5" as="sourcePoint" />
            <mxPoint x="390" y="227.5" as="targetPoint" />
          </mxGeometry>
        </mxCell>
        <mxCell id="iH4nYuXcYwgbLmIbxw34-28" value="Z4/3" style="edgeLabel;html=1;align=center;verticalAlign=middle;resizable=0;points=[];" parent="iH4nYuXcYwgbLmIbxw34-27" vertex="1" connectable="0">
          <mxGeometry x="-0.0224" y="2" relative="1" as="geometry">
            <mxPoint x="-4" y="2" as="offset" />
          </mxGeometry>
        </mxCell>
        <mxCell id="iH4nYuXcYwgbLmIbxw34-68" value="8" style="ellipse;whiteSpace=wrap;html=1;aspect=fixed;" parent="1" vertex="1">
          <mxGeometry x="697" y="230" width="30" height="30" as="geometry" />
        </mxCell>
        <mxCell id="iH4nYuXcYwgbLmIbxw34-70" value="9" style="ellipse;whiteSpace=wrap;html=1;aspect=fixed;" parent="1" vertex="1">
          <mxGeometry x="797" y="230" width="30" height="30" as="geometry" />
        </mxCell>
        <mxCell id="iH4nYuXcYwgbLmIbxw34-71" style="edgeStyle=orthogonalEdgeStyle;rounded=0;orthogonalLoop=1;jettySize=auto;html=1;exitX=1;exitY=0.5;exitDx=0;exitDy=0;entryX=0;entryY=0.5;entryDx=0;entryDy=0;" parent="1" source="iH4nYuXcYwgbLmIbxw34-68" target="iH4nYuXcYwgbLmIbxw34-70" edge="1">
          <mxGeometry relative="1" as="geometry">
            <mxPoint x="727" y="245" as="sourcePoint" />
            <mxPoint x="637" y="255" as="targetPoint" />
          </mxGeometry>
        </mxCell>
        <mxCell id="iH4nYuXcYwgbLmIbxw34-72" value="Z5/4" style="edgeLabel;html=1;align=center;verticalAlign=middle;resizable=0;points=[];" parent="iH4nYuXcYwgbLmIbxw34-71" vertex="1" connectable="0">
          <mxGeometry x="-0.0224" y="2" relative="1" as="geometry">
            <mxPoint x="-4" y="2" as="offset" />
          </mxGeometry>
        </mxCell>
        <mxCell id="iH4nYuXcYwgbLmIbxw34-78" value="12" style="ellipse;whiteSpace=wrap;html=1;aspect=fixed;" parent="1" vertex="1">
          <mxGeometry x="697" y="170" width="30" height="30" as="geometry" />
        </mxCell>
        <mxCell id="iH4nYuXcYwgbLmIbxw34-79" value="13" style="ellipse;whiteSpace=wrap;html=1;aspect=fixed;" parent="1" vertex="1">
          <mxGeometry x="797" y="170" width="30" height="30" as="geometry" />
        </mxCell>
        <mxCell id="iH4nYuXcYwgbLmIbxw34-80" style="edgeStyle=orthogonalEdgeStyle;rounded=0;orthogonalLoop=1;jettySize=auto;html=1;exitX=1;exitY=0.5;exitDx=0;exitDy=0;entryX=0;entryY=0.5;entryDx=0;entryDy=0;" parent="1" source="iH4nYuXcYwgbLmIbxw34-78" target="iH4nYuXcYwgbLmIbxw34-79" edge="1">
          <mxGeometry relative="1" as="geometry">
            <mxPoint x="727" y="185" as="sourcePoint" />
            <mxPoint x="637" y="195" as="targetPoint" />
          </mxGeometry>
        </mxCell>
        <mxCell id="iH4nYuXcYwgbLmIbxw34-81" value="Z7/7" style="edgeLabel;html=1;align=center;verticalAlign=middle;resizable=0;points=[];" parent="iH4nYuXcYwgbLmIbxw34-80" vertex="1" connectable="0">
          <mxGeometry x="-0.0224" y="2" relative="1" as="geometry">
            <mxPoint x="-4" y="2" as="offset" />
          </mxGeometry>
        </mxCell>
        <mxCell id="iH4nYuXcYwgbLmIbxw34-96" value="10" style="ellipse;whiteSpace=wrap;html=1;aspect=fixed;" parent="1" vertex="1">
          <mxGeometry x="697" y="110" width="30" height="30" as="geometry" />
        </mxCell>
        <mxCell id="iH4nYuXcYwgbLmIbxw34-97" value="11" style="ellipse;whiteSpace=wrap;html=1;aspect=fixed;" parent="1" vertex="1">
          <mxGeometry x="797" y="110" width="30" height="30" as="geometry" />
        </mxCell>
        <mxCell id="iH4nYuXcYwgbLmIbxw34-98" style="edgeStyle=orthogonalEdgeStyle;rounded=0;orthogonalLoop=1;jettySize=auto;html=1;exitX=1;exitY=0.5;exitDx=0;exitDy=0;entryX=0;entryY=0.5;entryDx=0;entryDy=0;" parent="1" source="iH4nYuXcYwgbLmIbxw34-96" target="iH4nYuXcYwgbLmIbxw34-97" edge="1">
          <mxGeometry relative="1" as="geometry">
            <mxPoint x="727" y="125" as="sourcePoint" />
            <mxPoint x="637" y="135" as="targetPoint" />
          </mxGeometry>
        </mxCell>
        <mxCell id="iH4nYuXcYwgbLmIbxw34-99" value="Z6/7" style="edgeLabel;html=1;align=center;verticalAlign=middle;resizable=0;points=[];" parent="iH4nYuXcYwgbLmIbxw34-98" vertex="1" connectable="0">
          <mxGeometry x="-0.0224" y="2" relative="1" as="geometry">
            <mxPoint x="-4" y="2" as="offset" />
          </mxGeometry>
        </mxCell>
        <mxCell id="iH4nYuXcYwgbLmIbxw34-101" value="14" style="ellipse;whiteSpace=wrap;html=1;aspect=fixed;" parent="1" vertex="1">
          <mxGeometry x="909" y="66" width="30" height="30" as="geometry" />
        </mxCell>
        <mxCell id="iH4nYuXcYwgbLmIbxw34-102" value="15" style="ellipse;whiteSpace=wrap;html=1;aspect=fixed;" parent="1" vertex="1">
          <mxGeometry x="1009" y="66" width="30" height="30" as="geometry" />
        </mxCell>
        <mxCell id="iH4nYuXcYwgbLmIbxw34-103" style="edgeStyle=orthogonalEdgeStyle;rounded=0;orthogonalLoop=1;jettySize=auto;html=1;exitX=1;exitY=0.5;exitDx=0;exitDy=0;entryX=0;entryY=0.5;entryDx=0;entryDy=0;" parent="1" source="iH4nYuXcYwgbLmIbxw34-101" target="iH4nYuXcYwgbLmIbxw34-102" edge="1">
          <mxGeometry relative="1" as="geometry">
            <mxPoint x="939" y="81" as="sourcePoint" />
            <mxPoint x="849" y="91" as="targetPoint" />
          </mxGeometry>
        </mxCell>
        <mxCell id="iH4nYuXcYwgbLmIbxw34-104" value="Z8/3" style="edgeLabel;html=1;align=center;verticalAlign=middle;resizable=0;points=[];" parent="iH4nYuXcYwgbLmIbxw34-103" vertex="1" connectable="0">
          <mxGeometry x="-0.0224" y="2" relative="1" as="geometry">
            <mxPoint x="-4" y="2" as="offset" />
          </mxGeometry>
        </mxCell>
        <mxCell id="iH4nYuXcYwgbLmIbxw34-117" value="18" style="ellipse;whiteSpace=wrap;html=1;aspect=fixed;" parent="1" vertex="1">
          <mxGeometry x="1150" y="175" width="30" height="30" as="geometry" />
        </mxCell>
        <mxCell id="iH4nYuXcYwgbLmIbxw34-118" value="19" style="ellipse;whiteSpace=wrap;html=1;aspect=fixed;" parent="1" vertex="1">
          <mxGeometry x="1221" y="175" width="30" height="30" as="geometry" />
        </mxCell>
        <mxCell id="iH4nYuXcYwgbLmIbxw34-119" style="edgeStyle=orthogonalEdgeStyle;rounded=0;orthogonalLoop=1;jettySize=auto;html=1;exitX=1;exitY=0.5;exitDx=0;exitDy=0;" parent="1" source="iH4nYuXcYwgbLmIbxw34-117" target="iH4nYuXcYwgbLmIbxw34-118" edge="1">
          <mxGeometry relative="1" as="geometry">
            <mxPoint x="1180" y="190" as="sourcePoint" />
            <mxPoint x="1090" y="200" as="targetPoint" />
          </mxGeometry>
        </mxCell>
        <mxCell id="iH4nYuXcYwgbLmIbxw34-120" value="Z10/4" style="edgeLabel;html=1;align=center;verticalAlign=middle;resizable=0;points=[];" parent="iH4nYuXcYwgbLmIbxw34-119" vertex="1" connectable="0">
          <mxGeometry x="-0.0224" y="2" relative="1" as="geometry">
            <mxPoint x="-4" y="2" as="offset" />
          </mxGeometry>
        </mxCell>
        <mxCell id="iH4nYuXcYwgbLmIbxw34-133" value="16" style="ellipse;whiteSpace=wrap;html=1;aspect=fixed;" parent="1" vertex="1">
          <mxGeometry x="1151" y="110" width="30" height="30" as="geometry" />
        </mxCell>
        <mxCell id="iH4nYuXcYwgbLmIbxw34-134" value="17" style="ellipse;whiteSpace=wrap;html=1;aspect=fixed;" parent="1" vertex="1">
          <mxGeometry x="1222" y="110" width="30" height="30" as="geometry" />
        </mxCell>
        <mxCell id="iH4nYuXcYwgbLmIbxw34-135" style="edgeStyle=orthogonalEdgeStyle;rounded=0;orthogonalLoop=1;jettySize=auto;html=1;exitX=1;exitY=0.5;exitDx=0;exitDy=0;" parent="1" source="iH4nYuXcYwgbLmIbxw34-133" target="iH4nYuXcYwgbLmIbxw34-134" edge="1">
          <mxGeometry relative="1" as="geometry">
            <mxPoint x="1181" y="125" as="sourcePoint" />
            <mxPoint x="1091" y="135" as="targetPoint" />
          </mxGeometry>
        </mxCell>
        <mxCell id="iH4nYuXcYwgbLmIbxw34-136" value="Z9/5" style="edgeLabel;html=1;align=center;verticalAlign=middle;resizable=0;points=[];" parent="iH4nYuXcYwgbLmIbxw34-135" vertex="1" connectable="0">
          <mxGeometry x="-0.0224" y="2" relative="1" as="geometry">
            <mxPoint x="-4" y="2" as="offset" />
          </mxGeometry>
        </mxCell>
        <mxCell id="iH4nYuXcYwgbLmIbxw34-141" value="20" style="ellipse;whiteSpace=wrap;html=1;aspect=fixed;" parent="1" vertex="1">
          <mxGeometry x="1310" y="145" width="30" height="30" as="geometry" />
        </mxCell>
        <mxCell id="iH4nYuXcYwgbLmIbxw34-142" value="21" style="ellipse;whiteSpace=wrap;html=1;aspect=fixed;" parent="1" vertex="1">
          <mxGeometry x="1390" y="145" width="30" height="30" as="geometry" />
        </mxCell>
        <mxCell id="iH4nYuXcYwgbLmIbxw34-143" style="edgeStyle=orthogonalEdgeStyle;rounded=0;orthogonalLoop=1;jettySize=auto;html=1;exitX=1;exitY=0.5;exitDx=0;exitDy=0;entryX=0;entryY=0.5;entryDx=0;entryDy=0;" parent="1" source="iH4nYuXcYwgbLmIbxw34-141" target="iH4nYuXcYwgbLmIbxw34-142" edge="1">
          <mxGeometry relative="1" as="geometry">
            <mxPoint x="1340" y="160" as="sourcePoint" />
            <mxPoint x="1250" y="170" as="targetPoint" />
          </mxGeometry>
        </mxCell>
        <mxCell id="iH4nYuXcYwgbLmIbxw34-144" value="Z11/2" style="edgeLabel;html=1;align=center;verticalAlign=middle;resizable=0;points=[];" parent="iH4nYuXcYwgbLmIbxw34-143" vertex="1" connectable="0">
          <mxGeometry x="-0.0224" y="2" relative="1" as="geometry">
            <mxPoint x="-4" y="2" as="offset" />
          </mxGeometry>
        </mxCell>
        <mxCell id="iH4nYuXcYwgbLmIbxw34-146" value="22" style="ellipse;whiteSpace=wrap;html=1;aspect=fixed;" parent="1" vertex="1">
          <mxGeometry x="1460" y="145" width="30" height="30" as="geometry" />
        </mxCell>
        <mxCell id="iH4nYuXcYwgbLmIbxw34-147" value="23" style="ellipse;whiteSpace=wrap;html=1;aspect=fixed;" parent="1" vertex="1">
          <mxGeometry x="1543" y="145" width="30" height="30" as="geometry" />
        </mxCell>
        <mxCell id="iH4nYuXcYwgbLmIbxw34-148" style="edgeStyle=orthogonalEdgeStyle;rounded=0;orthogonalLoop=1;jettySize=auto;html=1;exitX=1;exitY=0.5;exitDx=0;exitDy=0;entryX=0;entryY=0.5;entryDx=0;entryDy=0;" parent="1" source="iH4nYuXcYwgbLmIbxw34-146" target="iH4nYuXcYwgbLmIbxw34-147" edge="1">
          <mxGeometry relative="1" as="geometry">
            <mxPoint x="1490" y="160" as="sourcePoint" />
            <mxPoint x="1400" y="170" as="targetPoint" />
          </mxGeometry>
        </mxCell>
        <mxCell id="iH4nYuXcYwgbLmIbxw34-149" value="Z12/5" style="edgeLabel;html=1;align=center;verticalAlign=middle;resizable=0;points=[];" parent="iH4nYuXcYwgbLmIbxw34-148" vertex="1" connectable="0">
          <mxGeometry x="-0.0224" y="2" relative="1" as="geometry">
            <mxPoint x="-4" y="2" as="offset" />
          </mxGeometry>
        </mxCell>
        <mxCell id="aIM07i0CnICE3GbLq__h-2" value="" style="endArrow=block;dashed=1;endFill=0;endSize=12;html=1;rounded=0;exitX=1;exitY=0.5;exitDx=0;exitDy=0;entryX=0;entryY=0.5;entryDx=0;entryDy=0;" edge="1" parent="1" source="XW4laHf70i-aS3ndhYvc-2" target="iH4nYuXcYwgbLmIbxw34-5">
          <mxGeometry width="160" relative="1" as="geometry">
            <mxPoint x="120" y="270" as="sourcePoint" />
            <mxPoint x="280" y="270" as="targetPoint" />
          </mxGeometry>
        </mxCell>
        <mxCell id="aIM07i0CnICE3GbLq__h-4" value="" style="endArrow=block;dashed=1;endFill=0;endSize=12;html=1;rounded=0;exitX=1;exitY=0.5;exitDx=0;exitDy=0;entryX=0;entryY=0.5;entryDx=0;entryDy=0;" edge="1" parent="1" source="iH4nYuXcYwgbLmIbxw34-6" target="iH4nYuXcYwgbLmIbxw34-17">
          <mxGeometry width="160" relative="1" as="geometry">
            <mxPoint x="200" y="195" as="sourcePoint" />
            <mxPoint x="264" y="195" as="targetPoint" />
          </mxGeometry>
        </mxCell>
        <mxCell id="aIM07i0CnICE3GbLq__h-5" value="" style="endArrow=block;dashed=1;endFill=0;endSize=12;html=1;rounded=0;entryX=0;entryY=0.5;entryDx=0;entryDy=0;exitX=1;exitY=0.5;exitDx=0;exitDy=0;" edge="1" parent="1" source="iH4nYuXcYwgbLmIbxw34-6" target="iH4nYuXcYwgbLmIbxw34-18">
          <mxGeometry width="160" relative="1" as="geometry">
            <mxPoint x="390" y="180" as="sourcePoint" />
            <mxPoint x="460" y="163" as="targetPoint" />
          </mxGeometry>
        </mxCell>
        <mxCell id="aIM07i0CnICE3GbLq__h-6" value="" style="endArrow=block;dashed=1;endFill=0;endSize=12;html=1;rounded=0;exitX=1;exitY=0.5;exitDx=0;exitDy=0;entryX=0;entryY=0.5;entryDx=0;entryDy=0;" edge="1" parent="1" source="iH4nYuXcYwgbLmIbxw34-26" target="iH4nYuXcYwgbLmIbxw34-68">
          <mxGeometry width="160" relative="1" as="geometry">
            <mxPoint x="404" y="205" as="sourcePoint" />
            <mxPoint x="470" y="173" as="targetPoint" />
          </mxGeometry>
        </mxCell>
        <mxCell id="aIM07i0CnICE3GbLq__h-7" value="" style="endArrow=block;dashed=1;endFill=0;endSize=12;html=1;rounded=0;exitX=1;exitY=0.5;exitDx=0;exitDy=0;entryX=0;entryY=0.5;entryDx=0;entryDy=0;" edge="1" parent="1" source="iH4nYuXcYwgbLmIbxw34-23" target="iH4nYuXcYwgbLmIbxw34-96">
          <mxGeometry width="160" relative="1" as="geometry">
            <mxPoint x="590" y="228" as="sourcePoint" />
            <mxPoint x="707" y="255" as="targetPoint" />
          </mxGeometry>
        </mxCell>
        <mxCell id="aIM07i0CnICE3GbLq__h-8" value="" style="endArrow=block;dashed=1;endFill=0;endSize=12;html=1;rounded=0;entryX=0;entryY=0.5;entryDx=0;entryDy=0;exitX=1;exitY=0.5;exitDx=0;exitDy=0;" edge="1" parent="1" source="iH4nYuXcYwgbLmIbxw34-23" target="iH4nYuXcYwgbLmIbxw34-78">
          <mxGeometry width="160" relative="1" as="geometry">
            <mxPoint x="580" y="150" as="sourcePoint" />
            <mxPoint x="707" y="135" as="targetPoint" />
            <Array as="points">
              <mxPoint x="640" y="160" />
              <mxPoint x="640" y="185" />
            </Array>
          </mxGeometry>
        </mxCell>
        <mxCell id="aIM07i0CnICE3GbLq__h-9" value="" style="endArrow=block;dashed=1;endFill=0;endSize=12;html=1;rounded=0;exitX=1;exitY=0.5;exitDx=0;exitDy=0;entryX=0;entryY=0.5;entryDx=0;entryDy=0;" edge="1" parent="1" source="iH4nYuXcYwgbLmIbxw34-26" target="iH4nYuXcYwgbLmIbxw34-78">
          <mxGeometry width="160" relative="1" as="geometry">
            <mxPoint x="600" y="173" as="sourcePoint" />
            <mxPoint x="717" y="145" as="targetPoint" />
            <Array as="points">
              <mxPoint x="640" y="210" />
              <mxPoint x="640" y="185" />
            </Array>
          </mxGeometry>
        </mxCell>
        <mxCell id="aIM07i0CnICE3GbLq__h-10" value="" style="endArrow=block;dashed=1;endFill=0;endSize=12;html=1;rounded=0;entryX=0;entryY=0.5;entryDx=0;entryDy=0;exitX=1;exitY=0.5;exitDx=0;exitDy=0;" edge="1" parent="1" source="iH4nYuXcYwgbLmIbxw34-79" target="iH4nYuXcYwgbLmIbxw34-101">
          <mxGeometry width="160" relative="1" as="geometry">
            <mxPoint x="830" y="180" as="sourcePoint" />
            <mxPoint x="707" y="195" as="targetPoint" />
            <Array as="points">
              <mxPoint x="870" y="185" />
              <mxPoint x="870" y="80" />
            </Array>
          </mxGeometry>
        </mxCell>
        <mxCell id="aIM07i0CnICE3GbLq__h-11" value="" style="endArrow=none;dashed=1;html=1;rounded=0;exitX=1;exitY=0.5;exitDx=0;exitDy=0;" edge="1" parent="1" source="iH4nYuXcYwgbLmIbxw34-97">
          <mxGeometry width="50" height="50" relative="1" as="geometry">
            <mxPoint x="860" y="210" as="sourcePoint" />
            <mxPoint x="870" y="125" as="targetPoint" />
          </mxGeometry>
        </mxCell>
        <mxCell id="aIM07i0CnICE3GbLq__h-12" value="" style="endArrow=block;dashed=1;endFill=0;endSize=12;html=1;rounded=0;entryX=0;entryY=0.5;entryDx=0;entryDy=0;" edge="1" parent="1" target="iH4nYuXcYwgbLmIbxw34-117">
          <mxGeometry width="160" relative="1" as="geometry">
            <mxPoint x="870" y="160" as="sourcePoint" />
            <mxPoint x="1121.316822193287" y="160" as="targetPoint" />
            <Array as="points">
              <mxPoint x="1100" y="160" />
            </Array>
          </mxGeometry>
        </mxCell>
        <mxCell id="aIM07i0CnICE3GbLq__h-14" value="" style="endArrow=block;dashed=1;endFill=0;endSize=12;html=1;rounded=0;entryX=0;entryY=0.5;entryDx=0;entryDy=0;" edge="1" parent="1" target="iH4nYuXcYwgbLmIbxw34-133">
          <mxGeometry width="160" relative="1" as="geometry">
            <mxPoint x="870" y="160" as="sourcePoint" />
            <mxPoint x="1160" y="200" as="targetPoint" />
            <Array as="points">
              <mxPoint x="1100" y="160" />
            </Array>
          </mxGeometry>
        </mxCell>
        <mxCell id="aIM07i0CnICE3GbLq__h-15" value="" style="endArrow=none;dashed=1;html=1;rounded=0;entryX=1;entryY=0.5;entryDx=0;entryDy=0;" edge="1" parent="1" target="iH4nYuXcYwgbLmIbxw34-102">
          <mxGeometry width="50" height="50" relative="1" as="geometry">
            <mxPoint x="1080" y="160" as="sourcePoint" />
            <mxPoint x="880" y="135" as="targetPoint" />
            <Array as="points">
              <mxPoint x="1080" y="81" />
            </Array>
          </mxGeometry>
        </mxCell>
        <mxCell id="aIM07i0CnICE3GbLq__h-17" value="" style="endArrow=block;dashed=1;endFill=0;endSize=12;html=1;rounded=0;exitX=1;exitY=0.5;exitDx=0;exitDy=0;entryX=0;entryY=0.5;entryDx=0;entryDy=0;" edge="1" parent="1" target="iH4nYuXcYwgbLmIbxw34-141">
          <mxGeometry width="160" relative="1" as="geometry">
            <mxPoint x="1254" y="128" as="sourcePoint" />
            <mxPoint x="1320" y="96" as="targetPoint" />
            <Array as="points">
              <mxPoint x="1280" y="128" />
              <mxPoint x="1280" y="160" />
            </Array>
          </mxGeometry>
        </mxCell>
        <mxCell id="aIM07i0CnICE3GbLq__h-18" value="" style="endArrow=block;dashed=1;endFill=0;endSize=12;html=1;rounded=0;exitX=1;exitY=0.5;exitDx=0;exitDy=0;entryX=0;entryY=0.5;entryDx=0;entryDy=0;" edge="1" parent="1" source="iH4nYuXcYwgbLmIbxw34-142" target="iH4nYuXcYwgbLmIbxw34-146">
          <mxGeometry width="160" relative="1" as="geometry">
            <mxPoint x="1264" y="138" as="sourcePoint" />
            <mxPoint x="1330" y="106" as="targetPoint" />
          </mxGeometry>
        </mxCell>
        <mxCell id="aIM07i0CnICE3GbLq__h-19" value="" style="endArrow=none;dashed=1;html=1;rounded=0;entryX=1;entryY=0.5;entryDx=0;entryDy=0;" edge="1" parent="1" target="iH4nYuXcYwgbLmIbxw34-118">
          <mxGeometry width="50" height="50" relative="1" as="geometry">
            <mxPoint x="1280" y="160" as="sourcePoint" />
            <mxPoint x="1049" y="91" as="targetPoint" />
            <Array as="points">
              <mxPoint x="1280" y="190" />
            </Array>
          </mxGeometry>
        </mxCell>
      </root>
    </mxGraphModel>
  </diagram>
</mxfile>
